<svg xmlns="http://www.w3.org/2000/svg" xmlns:xlink="http://www.w3.org/1999/xlink" width="500" zoomAndPan="magnify" viewBox="0 0 375 225" height="300" preserveAspectRatio="xMidYMid meet" version="1.0"><defs><g/><clipPath id="313aed8269"><path d="M 0 0.679688 L 349 0.679688 L 349 163 L 0 163 Z M 0 0.679688 " clip-rule="nonzero"/></clipPath><clipPath id="dc3873c496"><rect x="0" width="349" y="0" height="163"/></clipPath><clipPath id="ac295c8c6c"><path d="M 345.285156 101.90625 L 374.851562 101.90625 L 374.851562 129.679688 L 345.285156 129.679688 Z M 345.285156 101.90625 " clip-rule="nonzero"/></clipPath><clipPath id="bd0d4eac8d"><path d="M 150 143 L 375 143 L 375 178.28125 L 150 178.28125 Z M 150 143 " clip-rule="nonzero"/></clipPath><clipPath id="ac66941e5d"><path d="M 0.480469 6 L 22 6 L 22 28 L 0.480469 28 Z M 0.480469 6 " clip-rule="nonzero"/></clipPath><clipPath id="1c0339c625"><rect x="0" width="225" y="0" height="36"/></clipPath><clipPath id="8e4ac75026"><rect x="0" width="375" y="0" height="179"/></clipPath></defs><g transform="matrix(1, 0, 0, 1, 0, 7)"><g clip-path="url(#8e4ac75026)"><g clip-path="url(#313aed8269)"><g transform="matrix(1, 0, 0, 1, 0, -0.000000000000008882)"><g clip-path="url(#dc3873c496)"><g fill="#ffffff" fill-opacity="1"><g transform="translate(-4.082009, 128.903987)"><g><path d="M 68.03125 -15.859375 L 68.03125 0 L 4.625 0 L 4.625 -12.421875 L 40.828125 -55.21875 L 5.546875 -55.21875 L 5.546875 -71.078125 L 66.84375 -71.078125 L 66.84375 -58.65625 L 30.65625 -15.859375 Z M 68.03125 -15.859375 "/></g></g></g><g fill="#ffffff" fill-opacity="1"><g transform="translate(57.342237, 128.903987)"><g><path d="M 38.171875 -72.125 C 49.179688 -72.125 57.632812 -69.503906 63.53125 -64.265625 C 69.4375 -59.023438 72.390625 -51.125 72.390625 -40.5625 L 72.390625 0 L 53.109375 0 L 53.109375 -8.84375 C 49.234375 -2.238281 42.007812 1.0625 31.4375 1.0625 C 25.976562 1.0625 21.242188 0.140625 17.234375 -1.703125 C 13.234375 -3.554688 10.175781 -6.113281 8.0625 -9.375 C 5.945312 -12.632812 4.890625 -16.335938 4.890625 -20.484375 C 4.890625 -27.085938 7.375 -32.28125 12.34375 -36.0625 C 17.320312 -39.851562 25.007812 -41.75 35.40625 -41.75 L 51.78125 -41.75 C 51.78125 -46.238281 50.414062 -49.691406 47.6875 -52.109375 C 44.957031 -54.535156 40.863281 -55.75 35.40625 -55.75 C 31.613281 -55.75 27.890625 -55.15625 24.234375 -53.96875 C 20.585938 -52.78125 17.484375 -51.171875 14.921875 -49.140625 L 7.53125 -63.546875 C 11.40625 -66.273438 16.050781 -68.382812 21.46875 -69.875 C 26.882812 -71.375 32.453125 -72.125 38.171875 -72.125 Z M 36.59375 -12.8125 C 40.113281 -12.8125 43.238281 -13.625 45.96875 -15.25 C 48.695312 -16.882812 50.632812 -19.285156 51.78125 -22.453125 L 51.78125 -29.71875 L 37.65625 -29.71875 C 29.195312 -29.71875 24.96875 -26.945312 24.96875 -21.40625 C 24.96875 -18.757812 26 -16.664062 28.0625 -15.125 C 30.132812 -13.582031 32.976562 -12.8125 36.59375 -12.8125 Z M 36.59375 -12.8125 "/></g></g></g><g fill="#ffffff" fill-opacity="1"><g transform="translate(128.541718, 128.903987)"><g><path d="M 55.359375 -3.4375 C 53.328125 -1.9375 50.835938 -0.8125 47.890625 -0.0625 C 44.941406 0.6875 41.835938 1.0625 38.578125 1.0625 C 30.117188 1.0625 23.578125 -1.09375 18.953125 -5.40625 C 14.328125 -9.726562 12.015625 -16.070312 12.015625 -24.4375 L 12.015625 -53.640625 L 1.0625 -53.640625 L 1.0625 -69.484375 L 12.015625 -69.484375 L 12.015625 -86.796875 L 32.625 -86.796875 L 32.625 -69.484375 L 50.328125 -69.484375 L 50.328125 -53.640625 L 32.625 -53.640625 L 32.625 -24.703125 C 32.625 -21.710938 33.394531 -19.398438 34.9375 -17.765625 C 36.476562 -16.140625 38.660156 -15.328125 41.484375 -15.328125 C 44.742188 -15.328125 47.519531 -16.207031 49.8125 -17.96875 Z M 55.359375 -3.4375 "/></g></g></g><g fill="#ffffff" fill-opacity="1"><g transform="translate(175.699402, 128.903987)"><g><path d="M 55.359375 -3.4375 C 53.328125 -1.9375 50.835938 -0.8125 47.890625 -0.0625 C 44.941406 0.6875 41.835938 1.0625 38.578125 1.0625 C 30.117188 1.0625 23.578125 -1.09375 18.953125 -5.40625 C 14.328125 -9.726562 12.015625 -16.070312 12.015625 -24.4375 L 12.015625 -53.640625 L 1.0625 -53.640625 L 1.0625 -69.484375 L 12.015625 -69.484375 L 12.015625 -86.796875 L 32.625 -86.796875 L 32.625 -69.484375 L 50.328125 -69.484375 L 50.328125 -53.640625 L 32.625 -53.640625 L 32.625 -24.703125 C 32.625 -21.710938 33.394531 -19.398438 34.9375 -17.765625 C 36.476562 -16.140625 38.660156 -15.328125 41.484375 -15.328125 C 44.742188 -15.328125 47.519531 -16.207031 49.8125 -17.96875 Z M 55.359375 -3.4375 "/></g></g></g><g fill="#ffffff" fill-opacity="1"><g transform="translate(222.857086, 128.903987)"><g><path d="M 38.171875 -72.125 C 49.179688 -72.125 57.632812 -69.503906 63.53125 -64.265625 C 69.4375 -59.023438 72.390625 -51.125 72.390625 -40.5625 L 72.390625 0 L 53.109375 0 L 53.109375 -8.84375 C 49.234375 -2.238281 42.007812 1.0625 31.4375 1.0625 C 25.976562 1.0625 21.242188 0.140625 17.234375 -1.703125 C 13.234375 -3.554688 10.175781 -6.113281 8.0625 -9.375 C 5.945312 -12.632812 4.890625 -16.335938 4.890625 -20.484375 C 4.890625 -27.085938 7.375 -32.28125 12.34375 -36.0625 C 17.320312 -39.851562 25.007812 -41.75 35.40625 -41.75 L 51.78125 -41.75 C 51.78125 -46.238281 50.414062 -49.691406 47.6875 -52.109375 C 44.957031 -54.535156 40.863281 -55.75 35.40625 -55.75 C 31.613281 -55.75 27.890625 -55.15625 24.234375 -53.96875 C 20.585938 -52.78125 17.484375 -51.171875 14.921875 -49.140625 L 7.53125 -63.546875 C 11.40625 -66.273438 16.050781 -68.382812 21.46875 -69.875 C 26.882812 -71.375 32.453125 -72.125 38.171875 -72.125 Z M 36.59375 -12.8125 C 40.113281 -12.8125 43.238281 -13.625 45.96875 -15.25 C 48.695312 -16.882812 50.632812 -19.285156 51.78125 -22.453125 L 51.78125 -29.71875 L 37.65625 -29.71875 C 29.195312 -29.71875 24.96875 -26.945312 24.96875 -21.40625 C 24.96875 -18.757812 26 -16.664062 28.0625 -15.125 C 30.132812 -13.582031 32.976562 -12.8125 36.59375 -12.8125 Z M 36.59375 -12.8125 "/></g></g></g><g fill="#ffffff" fill-opacity="1"><g transform="translate(294.056567, 128.903987)"><g><path d="M 29.203125 -61.6875 C 31.660156 -65.125 34.984375 -67.722656 39.171875 -69.484375 C 43.359375 -71.242188 48.179688 -72.125 53.640625 -72.125 L 53.640625 -53.109375 C 51.347656 -53.285156 49.804688 -53.375 49.015625 -53.375 C 43.109375 -53.375 38.484375 -51.722656 35.140625 -48.421875 C 31.796875 -45.117188 30.125 -40.164062 30.125 -33.5625 L 30.125 0 L 9.515625 0 L 9.515625 -71.078125 L 29.203125 -71.078125 Z M 29.203125 -61.6875 "/></g></g></g></g></g></g><g clip-path="url(#ac295c8c6c)"><path fill="#5523eb" d="M 374.285156 110.046875 C 373.773438 108.519531 373.0625 107.199219 372.144531 106.230469 C 371.6875 105.722656 371.128906 105.214844 370.519531 104.804688 C 370.007812 104.449219 369.398438 104.144531 368.839844 103.890625 C 368.433594 103.738281 368.023438 103.585938 367.667969 103.433594 C 367.414062 103.332031 367.160156 103.226562 366.90625 103.125 L 366.601562 102.972656 C 366.140625 102.769531 365.632812 102.566406 365.125 102.414062 C 364.359375 102.261719 363.597656 102.160156 362.886719 102.058594 C 362.222656 101.957031 361.5625 101.957031 360.800781 101.90625 C 360.648438 101.90625 360.441406 101.90625 360.289062 101.90625 C 359.171875 101.90625 358 102.007812 356.628906 102.210938 C 355.457031 102.363281 354.234375 102.667969 353.066406 103.125 C 352.453125 103.332031 351.84375 103.585938 351.335938 103.890625 C 350.777344 104.195312 350.214844 104.652344 349.707031 105.214844 C 349.199219 105.824219 348.738281 106.28125 348.382812 106.789062 C 348.230469 107.042969 348.027344 107.300781 347.875 107.554688 C 347.773438 107.707031 347.671875 107.859375 347.570312 108.011719 C 347.316406 108.417969 347.0625 108.773438 346.910156 109.183594 C 346.703125 109.589844 346.5 110.097656 346.347656 110.65625 C 346.246094 111.066406 346.144531 111.472656 346.09375 111.878906 C 346.042969 111.980469 346.042969 112.132812 345.992188 112.234375 C 345.839844 112.894531 345.738281 113.558594 345.636719 114.472656 C 345.484375 115.746094 345.433594 117.070312 345.535156 118.542969 C 345.585938 119.207031 345.636719 120.019531 345.839844 120.78125 C 346.042969 121.496094 346.296875 122.207031 346.652344 122.871094 C 346.960938 123.429688 347.367188 124.039062 347.925781 124.699219 C 348.230469 125.109375 348.636719 125.464844 348.996094 125.820312 L 349.300781 126.125 C 350.265625 127.09375 351.4375 127.90625 352.863281 128.621094 C 353.523438 128.925781 354.234375 129.179688 355.101562 129.433594 C 355.914062 129.636719 356.78125 129.789062 357.441406 129.890625 C 358.050781 129.992188 358.714844 129.992188 359.578125 130.042969 C 359.78125 130.042969 359.933594 130.042969 360.136719 130.042969 C 360.289062 130.042969 360.441406 130.042969 360.597656 130.042969 C 361.105469 130.042969 361.5625 129.941406 361.917969 129.890625 C 362.582031 129.789062 363.242188 129.636719 363.953125 129.382812 C 364.667969 129.179688 365.378906 128.824219 366.039062 128.515625 C 366.347656 128.363281 366.703125 128.210938 367.058594 128.007812 C 367.3125 127.855469 367.566406 127.703125 367.769531 127.550781 L 367.921875 127.449219 C 368.484375 127.042969 369.042969 126.582031 369.753906 125.921875 C 370.367188 125.363281 370.824219 124.855469 371.230469 124.394531 C 371.789062 123.785156 372.199219 123.023438 372.605469 122.359375 C 373.011719 121.648438 373.316406 120.886719 373.621094 120.171875 C 373.875 119.5625 374.128906 118.902344 374.285156 118.289062 C 374.488281 117.578125 374.589844 116.8125 374.691406 116.101562 C 374.742188 115.492188 374.792969 114.828125 374.84375 114.066406 C 374.84375 113.253906 374.742188 112.4375 374.640625 111.777344 C 374.640625 111.269531 374.488281 110.707031 374.285156 110.046875 Z M 374.285156 110.046875 " fill-opacity="1" fill-rule="nonzero"/></g><g clip-path="url(#bd0d4eac8d)"><g transform="matrix(1, 0, 0, 1, 150, 143)"><g clip-path="url(#1c0339c625)"><g clip-path="url(#ac66941e5d)"><g fill="#ffffff" fill-opacity="1"><g transform="translate(0.617337, 27.19116)"><g><path d="M 16.078125 -5.4375 L 4.734375 -5.4375 L 2.296875 0 L 0.0625 0 L 9.359375 -20.359375 L 11.484375 -20.359375 L 20.796875 0 L 18.515625 0 Z M 15.296875 -7.1875 L 10.40625 -18.109375 L 5.53125 -7.1875 Z M 15.296875 -7.1875 "/></g></g></g></g><g fill="#ffffff" fill-opacity="1"><g transform="translate(24.37111, 27.19116)"><g><path d="M 3.3125 -20.359375 L 11.609375 -20.359375 C 13.753906 -20.359375 15.648438 -19.925781 17.296875 -19.0625 C 18.941406 -18.195312 20.21875 -16.992188 21.125 -15.453125 C 22.039062 -13.910156 22.5 -12.148438 22.5 -10.171875 C 22.5 -8.203125 22.039062 -6.445312 21.125 -4.90625 C 20.21875 -3.363281 18.941406 -2.160156 17.296875 -1.296875 C 15.648438 -0.429688 13.753906 0 11.609375 0 L 3.3125 0 Z M 11.484375 -1.859375 C 13.265625 -1.859375 14.820312 -2.210938 16.15625 -2.921875 C 17.5 -3.628906 18.539062 -4.609375 19.28125 -5.859375 C 20.019531 -7.109375 20.390625 -8.546875 20.390625 -10.171875 C 20.390625 -11.804688 20.019531 -13.25 19.28125 -14.5 C 18.539062 -15.75 17.5 -16.726562 16.15625 -17.4375 C 14.820312 -18.144531 13.265625 -18.5 11.484375 -18.5 L 5.46875 -18.5 L 5.46875 -1.859375 Z M 11.484375 -1.859375 "/></g></g></g><g fill="#ffffff" fill-opacity="1"><g transform="translate(50.683343, 27.19116)"><g><path d="M 20.234375 -20.359375 L 11.21875 0 L 9.09375 0 L 0.09375 -20.359375 L 2.40625 -20.359375 L 10.203125 -2.671875 L 18.0625 -20.359375 Z M 20.234375 -20.359375 "/></g></g></g><g fill="#ffffff" fill-opacity="1"><g transform="translate(73.274133, 27.19116)"><g><path d="M 12.21875 0.171875 C 10.195312 0.171875 8.367188 -0.273438 6.734375 -1.171875 C 5.097656 -2.078125 3.816406 -3.3125 2.890625 -4.875 C 1.972656 -6.445312 1.515625 -8.210938 1.515625 -10.171875 C 1.515625 -12.128906 1.972656 -13.894531 2.890625 -15.46875 C 3.816406 -17.039062 5.097656 -18.273438 6.734375 -19.171875 C 8.367188 -20.078125 10.195312 -20.53125 12.21875 -20.53125 C 14.226562 -20.53125 16.039062 -20.082031 17.65625 -19.1875 C 19.28125 -18.300781 20.554688 -17.066406 21.484375 -15.484375 C 22.421875 -13.898438 22.890625 -12.128906 22.890625 -10.171875 C 22.890625 -8.210938 22.421875 -6.441406 21.484375 -4.859375 C 20.554688 -3.285156 19.28125 -2.050781 17.65625 -1.15625 C 16.039062 -0.269531 14.226562 0.171875 12.21875 0.171875 Z M 12.21875 -1.75 C 13.820312 -1.75 15.269531 -2.109375 16.5625 -2.828125 C 17.863281 -3.554688 18.882812 -4.566406 19.625 -5.859375 C 20.363281 -7.148438 20.734375 -8.585938 20.734375 -10.171875 C 20.734375 -11.765625 20.363281 -13.203125 19.625 -14.484375 C 18.882812 -15.773438 17.863281 -16.785156 16.5625 -17.515625 C 15.269531 -18.242188 13.820312 -18.609375 12.21875 -18.609375 C 10.601562 -18.609375 9.140625 -18.242188 7.828125 -17.515625 C 6.523438 -16.785156 5.5 -15.773438 4.75 -14.484375 C 4.007812 -13.203125 3.640625 -11.765625 3.640625 -10.171875 C 3.640625 -8.585938 4.007812 -7.148438 4.75 -5.859375 C 5.5 -4.566406 6.523438 -3.554688 7.828125 -2.828125 C 9.140625 -2.109375 10.601562 -1.75 12.21875 -1.75 Z M 12.21875 -1.75 "/></g></g></g><g fill="#ffffff" fill-opacity="1"><g transform="translate(100.574905, 27.19116)"><g><path d="M 17.65625 -10.171875 L 19.71875 -10.171875 L 19.71875 -2.40625 C 18.769531 -1.570312 17.644531 -0.929688 16.34375 -0.484375 C 15.039062 -0.046875 13.671875 0.171875 12.234375 0.171875 C 10.203125 0.171875 8.367188 -0.269531 6.734375 -1.15625 C 5.109375 -2.050781 3.832031 -3.285156 2.90625 -4.859375 C 1.976562 -6.441406 1.515625 -8.210938 1.515625 -10.171875 C 1.515625 -12.128906 1.976562 -13.898438 2.90625 -15.484375 C 3.832031 -17.066406 5.109375 -18.300781 6.734375 -19.1875 C 8.367188 -20.082031 10.210938 -20.53125 12.265625 -20.53125 C 13.816406 -20.53125 15.242188 -20.28125 16.546875 -19.78125 C 17.847656 -19.289062 18.941406 -18.5625 19.828125 -17.59375 L 18.5 -16.21875 C 16.882812 -17.8125 14.835938 -18.609375 12.359375 -18.609375 C 10.710938 -18.609375 9.222656 -18.242188 7.890625 -17.515625 C 6.566406 -16.785156 5.523438 -15.773438 4.765625 -14.484375 C 4.015625 -13.203125 3.640625 -11.765625 3.640625 -10.171875 C 3.640625 -8.585938 4.015625 -7.15625 4.765625 -5.875 C 5.523438 -4.59375 6.5625 -3.582031 7.875 -2.84375 C 9.195312 -2.113281 10.679688 -1.75 12.328125 -1.75 C 14.421875 -1.75 16.195312 -2.269531 17.65625 -3.3125 Z M 17.65625 -10.171875 "/></g></g></g><g fill="#ffffff" fill-opacity="1"><g transform="translate(125.956809, 27.19116)"><g><path d="M 16.078125 -5.4375 L 4.734375 -5.4375 L 2.296875 0 L 0.0625 0 L 9.359375 -20.359375 L 11.484375 -20.359375 L 20.796875 0 L 18.515625 0 Z M 15.296875 -7.1875 L 10.40625 -18.109375 L 5.53125 -7.1875 Z M 15.296875 -7.1875 "/></g></g></g><g fill="#ffffff" fill-opacity="1"><g transform="translate(149.710581, 27.19116)"><g><path d="M 3.3125 -20.359375 L 11.609375 -20.359375 C 13.753906 -20.359375 15.648438 -19.925781 17.296875 -19.0625 C 18.941406 -18.195312 20.21875 -16.992188 21.125 -15.453125 C 22.039062 -13.910156 22.5 -12.148438 22.5 -10.171875 C 22.5 -8.203125 22.039062 -6.445312 21.125 -4.90625 C 20.21875 -3.363281 18.941406 -2.160156 17.296875 -1.296875 C 15.648438 -0.429688 13.753906 0 11.609375 0 L 3.3125 0 Z M 11.484375 -1.859375 C 13.265625 -1.859375 14.820312 -2.210938 16.15625 -2.921875 C 17.5 -3.628906 18.539062 -4.609375 19.28125 -5.859375 C 20.019531 -7.109375 20.390625 -8.546875 20.390625 -10.171875 C 20.390625 -11.804688 20.019531 -13.25 19.28125 -14.5 C 18.539062 -15.75 17.5 -16.726562 16.15625 -17.4375 C 14.820312 -18.144531 13.265625 -18.5 11.484375 -18.5 L 5.46875 -18.5 L 5.46875 -1.859375 Z M 11.484375 -1.859375 "/></g></g></g><g fill="#ffffff" fill-opacity="1"><g transform="translate(176.633386, 27.19116)"><g><path d="M 12.21875 0.171875 C 10.195312 0.171875 8.367188 -0.273438 6.734375 -1.171875 C 5.097656 -2.078125 3.816406 -3.3125 2.890625 -4.875 C 1.972656 -6.445312 1.515625 -8.210938 1.515625 -10.171875 C 1.515625 -12.128906 1.972656 -13.894531 2.890625 -15.46875 C 3.816406 -17.039062 5.097656 -18.273438 6.734375 -19.171875 C 8.367188 -20.078125 10.195312 -20.53125 12.21875 -20.53125 C 14.226562 -20.53125 16.039062 -20.082031 17.65625 -19.1875 C 19.28125 -18.300781 20.554688 -17.066406 21.484375 -15.484375 C 22.421875 -13.898438 22.890625 -12.128906 22.890625 -10.171875 C 22.890625 -8.210938 22.421875 -6.441406 21.484375 -4.859375 C 20.554688 -3.285156 19.28125 -2.050781 17.65625 -1.15625 C 16.039062 -0.269531 14.226562 0.171875 12.21875 0.171875 Z M 12.21875 -1.75 C 13.820312 -1.75 15.269531 -2.109375 16.5625 -2.828125 C 17.863281 -3.554688 18.882812 -4.566406 19.625 -5.859375 C 20.363281 -7.148438 20.734375 -8.585938 20.734375 -10.171875 C 20.734375 -11.765625 20.363281 -13.203125 19.625 -14.484375 C 18.882812 -15.773438 17.863281 -16.785156 16.5625 -17.515625 C 15.269531 -18.242188 13.820312 -18.609375 12.21875 -18.609375 C 10.601562 -18.609375 9.140625 -18.242188 7.828125 -17.515625 C 6.523438 -16.785156 5.5 -15.773438 4.75 -14.484375 C 4.007812 -13.203125 3.640625 -11.765625 3.640625 -10.171875 C 3.640625 -8.585938 4.007812 -7.148438 4.75 -5.859375 C 5.5 -4.566406 6.523438 -3.554688 7.828125 -2.828125 C 9.140625 -2.109375 10.601562 -1.75 12.21875 -1.75 Z M 12.21875 -1.75 "/></g></g></g><g fill="#ffffff" fill-opacity="1"><g transform="translate(203.934158, 27.19116)"><g><path d="M 8.921875 0.171875 C 7.410156 0.171875 5.960938 -0.0664062 4.578125 -0.546875 C 3.191406 -1.035156 2.117188 -1.675781 1.359375 -2.46875 L 2.203125 -4.125 C 2.941406 -3.394531 3.921875 -2.800781 5.140625 -2.34375 C 6.367188 -1.882812 7.628906 -1.65625 8.921875 -1.65625 C 10.742188 -1.65625 12.109375 -1.988281 13.015625 -2.65625 C 13.929688 -3.320312 14.390625 -4.191406 14.390625 -5.265625 C 14.390625 -6.078125 14.140625 -6.722656 13.640625 -7.203125 C 13.148438 -7.691406 12.546875 -8.066406 11.828125 -8.328125 C 11.117188 -8.585938 10.125 -8.875 8.84375 -9.1875 C 7.3125 -9.570312 6.085938 -9.941406 5.171875 -10.296875 C 4.265625 -10.660156 3.484375 -11.210938 2.828125 -11.953125 C 2.179688 -12.691406 1.859375 -13.691406 1.859375 -14.953125 C 1.859375 -15.972656 2.128906 -16.90625 2.671875 -17.75 C 3.210938 -18.59375 4.046875 -19.265625 5.171875 -19.765625 C 6.296875 -20.273438 7.691406 -20.53125 9.359375 -20.53125 C 10.523438 -20.53125 11.664062 -20.367188 12.78125 -20.046875 C 13.894531 -19.722656 14.859375 -19.28125 15.671875 -18.71875 L 14.953125 -17.015625 C 14.097656 -17.578125 13.1875 -18 12.21875 -18.28125 C 11.25 -18.5625 10.296875 -18.703125 9.359375 -18.703125 C 7.578125 -18.703125 6.234375 -18.351562 5.328125 -17.65625 C 4.429688 -16.96875 3.984375 -16.082031 3.984375 -15 C 3.984375 -14.1875 4.226562 -13.53125 4.71875 -13.03125 C 5.21875 -12.539062 5.835938 -12.164062 6.578125 -11.90625 C 7.328125 -11.644531 8.332031 -11.359375 9.59375 -11.046875 C 11.082031 -10.679688 12.285156 -10.316406 13.203125 -9.953125 C 14.128906 -9.597656 14.910156 -9.054688 15.546875 -8.328125 C 16.191406 -7.597656 16.515625 -6.613281 16.515625 -5.375 C 16.515625 -4.351562 16.238281 -3.421875 15.6875 -2.578125 C 15.132812 -1.734375 14.285156 -1.0625 13.140625 -0.5625 C 11.992188 -0.0703125 10.585938 0.171875 8.921875 0.171875 Z M 8.921875 0.171875 "/></g></g></g></g></g></g></g></g></svg>