<svg xmlns="http://www.w3.org/2000/svg" xmlns:xlink="http://www.w3.org/1999/xlink" width="500" zoomAndPan="magnify" viewBox="0 0 375 374.999991" height="500" preserveAspectRatio="xMidYMid meet" version="1.0"><defs><g/><clipPath id="8472854307"><rect x="0" width="263" y="0" height="375"/></clipPath><clipPath id="c2e8321aba"><path d="M 280.039062 246.871094 L 371 246.871094 L 371 332.890625 L 280.039062 332.890625 Z M 280.039062 246.871094 " clip-rule="nonzero"/></clipPath><clipPath id="e0fbd9f796"><rect x="0" width="372" y="0" height="375"/></clipPath></defs><g transform="matrix(1, 0, 0, 1, 0, 0)"><g clip-path="url(#e0fbd9f796)"><g transform="matrix(1, 0, 0, 1, 0, 0)"><g clip-path="url(#8472854307)"><g fill="#282828" fill-opacity="1"><g transform="translate(-8.501201, 331.584934)"><g><path d="M 268.734375 -62.625 L 268.734375 0 L 18.265625 0 L 18.265625 -49.046875 L 161.25 -218.125 L 21.921875 -218.125 L 21.921875 -280.75 L 264.046875 -280.75 L 264.046875 -231.6875 L 121.0625 -62.625 Z M 268.734375 -62.625 "/></g></g></g></g></g><g clip-path="url(#c2e8321aba)"><path fill="#5523eb" d="M 368.734375 271.773438 C 367.179688 267.105469 365 263.058594 362.199219 260.101562 C 360.796875 258.542969 359.085938 256.988281 357.21875 255.742188 C 355.664062 254.652344 353.792969 253.71875 352.082031 252.941406 C 350.835938 252.472656 349.59375 252.007812 348.503906 251.539062 C 347.726562 251.226562 346.945312 250.917969 346.167969 250.605469 L 345.234375 250.140625 C 343.832031 249.515625 342.277344 248.894531 340.722656 248.425781 C 338.386719 247.960938 336.050781 247.648438 333.871094 247.335938 C 331.847656 247.027344 329.824219 247.027344 327.492188 246.871094 C 327.023438 246.871094 326.402344 246.871094 325.933594 246.871094 C 322.511719 246.871094 318.929688 247.183594 314.730469 247.804688 C 311.148438 248.269531 307.414062 249.207031 303.835938 250.605469 C 301.964844 251.226562 300.097656 252.007812 298.542969 252.941406 C 296.832031 253.875 295.117188 255.273438 293.5625 256.988281 C 292.007812 258.855469 290.605469 260.253906 289.515625 261.8125 C 289.046875 262.589844 288.425781 263.367188 287.960938 264.148438 C 287.648438 264.613281 287.335938 265.082031 287.027344 265.546875 C 286.246094 266.792969 285.46875 267.882812 285.003906 269.128906 C 284.378906 270.371094 283.757812 271.929688 283.289062 273.640625 C 282.980469 274.886719 282.667969 276.128906 282.511719 277.375 C 282.355469 277.6875 282.355469 278.152344 282.199219 278.464844 C 281.734375 280.488281 281.421875 282.511719 281.109375 285.3125 C 280.644531 289.203125 280.488281 293.25 280.800781 297.765625 C 280.957031 299.789062 281.109375 302.277344 281.734375 304.613281 C 282.355469 306.792969 283.132812 308.96875 284.222656 310.992188 C 285.15625 312.707031 286.402344 314.574219 288.113281 316.597656 C 289.046875 317.84375 290.292969 318.929688 291.382812 320.019531 L 292.316406 320.953125 C 295.273438 323.910156 298.855469 326.402344 303.210938 328.582031 C 305.234375 329.515625 307.414062 330.292969 310.058594 331.070312 C 312.550781 331.695312 315.195312 332.160156 317.21875 332.472656 C 319.085938 332.785156 321.109375 332.785156 323.757812 332.9375 C 324.378906 332.9375 324.847656 332.9375 325.46875 332.9375 C 325.933594 332.9375 326.402344 332.9375 326.867188 332.9375 C 328.425781 332.9375 329.824219 332.628906 330.914062 332.472656 C 332.9375 332.160156 334.960938 331.695312 337.140625 330.914062 C 339.320312 330.292969 341.5 329.203125 343.523438 328.269531 C 344.457031 327.804688 345.546875 327.335938 346.636719 326.714844 C 347.414062 326.246094 348.191406 325.78125 348.8125 325.3125 L 349.28125 325 C 350.992188 323.757812 352.707031 322.355469 354.882812 320.332031 C 356.75 318.621094 358.152344 317.0625 359.398438 315.664062 C 361.109375 313.796875 362.355469 311.460938 363.601562 309.4375 C 364.84375 307.257812 365.777344 304.925781 366.710938 302.746094 C 367.492188 300.878906 368.269531 298.855469 368.734375 296.988281 C 369.359375 294.808594 369.667969 292.472656 369.980469 290.292969 C 370.136719 288.425781 370.292969 286.402344 370.449219 284.066406 C 370.449219 281.578125 370.136719 279.089844 369.824219 277.066406 C 369.824219 275.507812 369.359375 273.796875 368.734375 271.773438 Z M 368.734375 271.773438 " fill-opacity="1" fill-rule="nonzero"/></g></g></g></svg>