<svg xmlns="http://www.w3.org/2000/svg" xmlns:xlink="http://www.w3.org/1999/xlink" width="500" zoomAndPan="magnify" viewBox="0 0 375 374.999991" height="500" preserveAspectRatio="xMidYMid meet" version="1.0"><defs><g/><clipPath id="4e993aa673"><path d="M 0.71875 0 L 250 0 L 250 375 L 0.71875 375 Z M 0.71875 0 " clip-rule="nonzero"/></clipPath><clipPath id="40f64020f9"><rect x="0" width="250" y="0" height="375"/></clipPath><clipPath id="6f5ce2f91b"><path d="M 266 239.417969 L 348 239.417969 L 348 317.484375 L 266 317.484375 Z M 266 239.417969 " clip-rule="nonzero"/></clipPath><clipPath id="b51ffc7655"><rect x="0" width="349" y="0" height="375"/></clipPath></defs><g transform="matrix(1, 0, 0, 1, 6, 0)"><g clip-path="url(#b51ffc7655)"><g clip-path="url(#4e993aa673)"><g><g clip-path="url(#40f64020f9)"><g fill="#ffffff" fill-opacity="1"><g transform="translate(3.623198, 316.300388)"><g><path d="M 243.890625 -56.828125 L 243.890625 0 L 16.578125 0 L 16.578125 -44.515625 L 146.328125 -197.953125 L 19.890625 -197.953125 L 19.890625 -254.78125 L 239.625 -254.78125 L 239.625 -210.265625 L 109.875 -56.828125 Z M 243.890625 -56.828125 "/></g></g></g></g></g></g><g clip-path="url(#6f5ce2f91b)"><path fill="#5523eb" d="M 345.976562 262.019531 C 344.5625 257.78125 342.585938 254.109375 340.042969 251.425781 C 338.773438 250.011719 337.21875 248.601562 335.523438 247.472656 C 334.113281 246.480469 332.417969 245.632812 330.863281 244.929688 C 329.734375 244.503906 328.605469 244.082031 327.613281 243.65625 C 326.910156 243.375 326.203125 243.09375 325.496094 242.808594 L 324.648438 242.386719 C 323.378906 241.820312 321.964844 241.257812 320.550781 240.832031 C 318.433594 240.410156 316.316406 240.125 314.335938 239.84375 C 312.5 239.5625 310.664062 239.5625 308.546875 239.417969 C 308.121094 239.417969 307.558594 239.417969 307.132812 239.417969 C 304.027344 239.417969 300.777344 239.703125 296.964844 240.265625 C 293.714844 240.691406 290.324219 241.539062 287.078125 242.808594 C 285.382812 243.375 283.6875 244.082031 282.273438 244.929688 C 280.722656 245.777344 279.167969 247.046875 277.753906 248.601562 C 276.34375 250.296875 275.070312 251.566406 274.082031 252.980469 C 273.660156 253.6875 273.09375 254.390625 272.667969 255.097656 C 272.386719 255.523438 272.105469 255.945312 271.820312 256.371094 C 271.117188 257.5 270.410156 258.488281 269.984375 259.617188 C 269.421875 260.746094 268.855469 262.160156 268.433594 263.714844 C 268.148438 264.84375 267.867188 265.972656 267.726562 267.105469 C 267.585938 267.386719 267.585938 267.808594 267.445312 268.09375 C 267.019531 269.929688 266.738281 271.765625 266.453125 274.308594 C 266.03125 277.839844 265.890625 281.511719 266.171875 285.609375 C 266.3125 287.445312 266.453125 289.703125 267.019531 291.824219 C 267.585938 293.800781 268.292969 295.777344 269.28125 297.613281 C 270.128906 299.167969 271.257812 300.863281 272.8125 302.699219 C 273.660156 303.828125 274.789062 304.816406 275.777344 305.804688 L 276.625 306.652344 C 279.308594 309.335938 282.558594 311.597656 286.511719 313.574219 C 288.347656 314.421875 290.324219 315.128906 292.726562 315.835938 C 294.988281 316.398438 297.386719 316.824219 299.222656 317.105469 C 300.917969 317.386719 302.753906 317.386719 305.15625 317.527344 C 305.722656 317.527344 306.144531 317.527344 306.710938 317.527344 C 307.132812 317.527344 307.558594 317.527344 307.980469 317.527344 C 309.394531 317.527344 310.664062 317.246094 311.652344 317.105469 C 313.488281 316.824219 315.328125 316.398438 317.304688 315.691406 C 319.28125 315.128906 321.257812 314.140625 323.09375 313.292969 C 323.941406 312.867188 324.929688 312.445312 325.917969 311.878906 C 326.625 311.457031 327.332031 311.03125 327.898438 310.609375 L 328.320312 310.324219 C 329.875 309.195312 331.429688 307.925781 333.40625 306.089844 C 335.101562 304.535156 336.371094 303.121094 337.503906 301.851562 C 339.054688 300.15625 340.1875 298.039062 341.316406 296.199219 C 342.445312 294.222656 343.292969 292.105469 344.140625 290.128906 C 344.847656 288.433594 345.554688 286.597656 345.976562 284.902344 C 346.542969 282.921875 346.824219 280.804688 347.105469 278.828125 C 347.25 277.132812 347.390625 275.296875 347.53125 273.175781 C 347.53125 270.917969 347.25 268.65625 346.964844 266.820312 C 346.964844 265.410156 346.542969 263.855469 345.976562 262.019531 Z M 345.976562 262.019531 " fill-opacity="1" fill-rule="nonzero"/></g></g></g></svg>