<svg xmlns="http://www.w3.org/2000/svg" xmlns:xlink="http://www.w3.org/1999/xlink" width="500" zoomAndPan="magnify" viewBox="0 0 375 374.999991" height="500" preserveAspectRatio="xMidYMid meet" version="1.0"><defs><g/><clipPath id="0d46cd5bef"><rect x="0" width="204" y="0" height="94"/></clipPath><clipPath id="f67e9b3fbd"><rect x="0" width="77" y="0" height="123"/></clipPath></defs><rect x="-37.5" width="450" fill="#ffffff" y="-37.499999" height="449.999989" fill-opacity="1"/><rect x="-37.5" width="450" fill="#ffffff" y="-37.499999" height="449.999989" fill-opacity="1"/><g transform="matrix(1, 0, 0, 1, 48, 145)"><g clip-path="url(#0d46cd5bef)"><g fill="#282828" fill-opacity="1"><g transform="translate(0.510106, 73.888351)"><g><path d="M 39.1875 -9.125 L 39.1875 0 L 2.65625 0 L 2.65625 -7.15625 L 23.515625 -31.796875 L 3.1875 -31.796875 L 3.1875 -40.9375 L 38.5 -40.9375 L 38.5 -33.78125 L 17.65625 -9.125 Z M 39.1875 -9.125 "/></g></g></g><g fill="#282828" fill-opacity="1"><g transform="translate(35.882497, 73.888351)"><g><path d="M 21.984375 -41.53125 C 28.328125 -41.53125 33.195312 -40.019531 36.59375 -37 C 39.988281 -33.988281 41.6875 -29.441406 41.6875 -23.359375 L 41.6875 0 L 30.578125 0 L 30.578125 -5.09375 C 28.347656 -1.289062 24.191406 0.609375 18.109375 0.609375 C 14.960938 0.609375 12.234375 0.078125 9.921875 -0.984375 C 7.617188 -2.054688 5.859375 -3.53125 4.640625 -5.40625 C 3.421875 -7.28125 2.8125 -9.410156 2.8125 -11.796875 C 2.8125 -15.597656 4.242188 -18.585938 7.109375 -20.765625 C 9.972656 -22.953125 14.398438 -24.046875 20.390625 -24.046875 L 29.828125 -24.046875 C 29.828125 -26.628906 29.039062 -28.617188 27.46875 -30.015625 C 25.894531 -31.410156 23.535156 -32.109375 20.390625 -32.109375 C 18.210938 -32.109375 16.066406 -31.765625 13.953125 -31.078125 C 11.847656 -30.390625 10.0625 -29.460938 8.59375 -28.296875 L 4.34375 -36.59375 C 6.570312 -38.164062 9.242188 -39.378906 12.359375 -40.234375 C 15.484375 -41.097656 18.691406 -41.53125 21.984375 -41.53125 Z M 21.078125 -7.375 C 23.097656 -7.375 24.894531 -7.84375 26.46875 -8.78125 C 28.039062 -9.71875 29.160156 -11.101562 29.828125 -12.9375 L 29.828125 -17.125 L 21.6875 -17.125 C 16.8125 -17.125 14.375 -15.523438 14.375 -12.328125 C 14.375 -10.804688 14.96875 -9.597656 16.15625 -8.703125 C 17.351562 -7.816406 18.992188 -7.375 21.078125 -7.375 Z M 21.078125 -7.375 "/></g></g></g><g fill="#282828" fill-opacity="1"><g transform="translate(76.884094, 73.888351)"><g><path d="M 31.875 -1.984375 C 30.707031 -1.117188 29.273438 -0.46875 27.578125 -0.03125 C 25.878906 0.394531 24.09375 0.609375 22.21875 0.609375 C 17.34375 0.609375 13.570312 -0.628906 10.90625 -3.109375 C 8.25 -5.597656 6.921875 -9.253906 6.921875 -14.078125 L 6.921875 -30.890625 L 0.609375 -30.890625 L 0.609375 -40.015625 L 6.921875 -40.015625 L 6.921875 -49.984375 L 18.796875 -49.984375 L 18.796875 -40.015625 L 28.984375 -40.015625 L 28.984375 -30.890625 L 18.796875 -30.890625 L 18.796875 -14.234375 C 18.796875 -12.503906 19.238281 -11.171875 20.125 -10.234375 C 21.007812 -9.296875 22.265625 -8.828125 23.890625 -8.828125 C 25.765625 -8.828125 27.363281 -9.332031 28.6875 -10.34375 Z M 31.875 -1.984375 "/></g></g></g><g fill="#282828" fill-opacity="1"><g transform="translate(104.040899, 73.888351)"><g><path d="M 31.875 -1.984375 C 30.707031 -1.117188 29.273438 -0.46875 27.578125 -0.03125 C 25.878906 0.394531 24.09375 0.609375 22.21875 0.609375 C 17.34375 0.609375 13.570312 -0.628906 10.90625 -3.109375 C 8.25 -5.597656 6.921875 -9.253906 6.921875 -14.078125 L 6.921875 -30.890625 L 0.609375 -30.890625 L 0.609375 -40.015625 L 6.921875 -40.015625 L 6.921875 -49.984375 L 18.796875 -49.984375 L 18.796875 -40.015625 L 28.984375 -40.015625 L 28.984375 -30.890625 L 18.796875 -30.890625 L 18.796875 -14.234375 C 18.796875 -12.503906 19.238281 -11.171875 20.125 -10.234375 C 21.007812 -9.296875 22.265625 -8.828125 23.890625 -8.828125 C 25.765625 -8.828125 27.363281 -9.332031 28.6875 -10.34375 Z M 31.875 -1.984375 "/></g></g></g><g fill="#282828" fill-opacity="1"><g transform="translate(131.197704, 73.888351)"><g><path d="M 21.984375 -41.53125 C 28.328125 -41.53125 33.195312 -40.019531 36.59375 -37 C 39.988281 -33.988281 41.6875 -29.441406 41.6875 -23.359375 L 41.6875 0 L 30.578125 0 L 30.578125 -5.09375 C 28.347656 -1.289062 24.191406 0.609375 18.109375 0.609375 C 14.960938 0.609375 12.234375 0.078125 9.921875 -0.984375 C 7.617188 -2.054688 5.859375 -3.53125 4.640625 -5.40625 C 3.421875 -7.28125 2.8125 -9.410156 2.8125 -11.796875 C 2.8125 -15.597656 4.242188 -18.585938 7.109375 -20.765625 C 9.972656 -22.953125 14.398438 -24.046875 20.390625 -24.046875 L 29.828125 -24.046875 C 29.828125 -26.628906 29.039062 -28.617188 27.46875 -30.015625 C 25.894531 -31.410156 23.535156 -32.109375 20.390625 -32.109375 C 18.210938 -32.109375 16.066406 -31.765625 13.953125 -31.078125 C 11.847656 -30.390625 10.0625 -29.460938 8.59375 -28.296875 L 4.34375 -36.59375 C 6.570312 -38.164062 9.242188 -39.378906 12.359375 -40.234375 C 15.484375 -41.097656 18.691406 -41.53125 21.984375 -41.53125 Z M 21.078125 -7.375 C 23.097656 -7.375 24.894531 -7.84375 26.46875 -8.78125 C 28.039062 -9.71875 29.160156 -11.101562 29.828125 -12.9375 L 29.828125 -17.125 L 21.6875 -17.125 C 16.8125 -17.125 14.375 -15.523438 14.375 -12.328125 C 14.375 -10.804688 14.96875 -9.597656 16.15625 -8.703125 C 17.351562 -7.816406 18.992188 -7.375 21.078125 -7.375 Z M 21.078125 -7.375 "/></g></g></g><g fill="#282828" fill-opacity="1"><g transform="translate(172.199309, 73.888351)"><g><path d="M 16.8125 -35.53125 C 18.226562 -37.507812 20.140625 -39.003906 22.546875 -40.015625 C 24.960938 -41.023438 27.742188 -41.53125 30.890625 -41.53125 L 30.890625 -30.578125 C 29.566406 -30.679688 28.675781 -30.734375 28.21875 -30.734375 C 24.820312 -30.734375 22.160156 -29.78125 20.234375 -27.875 C 18.304688 -25.976562 17.34375 -23.128906 17.34375 -19.328125 L 17.34375 0 L 5.484375 0 L 5.484375 -40.9375 L 16.8125 -40.9375 Z M 16.8125 -35.53125 "/></g></g></g></g></g><g transform="matrix(1, 0, 0, 1, 255, 124)"><g clip-path="url(#f67e9b3fbd)"><g fill="#5523eb" fill-opacity="1"><g transform="translate(0.850181, 98.990472)"><g><path d="M 22.125 0.734375 C 15.625 0.734375 10.96875 -1.109375 8.15625 -4.796875 C 5.34375 -8.484375 3.9375 -13.820312 3.9375 -20.8125 L 3.9375 -45.96875 C 3.9375 -52.851562 5.351562 -58.066406 8.1875 -61.609375 C 11.03125 -65.160156 15.675781 -66.9375 22.125 -66.9375 C 28.570312 -66.9375 33.203125 -65.144531 36.015625 -61.5625 C 38.828125 -57.988281 40.234375 -52.789062 40.234375 -45.96875 L 40.234375 -20.734375 C 40.234375 -13.847656 38.8125 -8.546875 35.96875 -4.828125 C 33.125 -1.117188 28.507812 0.734375 22.125 0.734375 Z M 22.125 -6.5625 C 25.5625 -6.5625 27.878906 -7.570312 29.078125 -9.59375 C 30.285156 -11.613281 30.890625 -14.671875 30.890625 -18.765625 L 30.890625 -47.84375 C 30.890625 -51.894531 30.285156 -54.890625 29.078125 -56.828125 C 27.878906 -58.765625 25.5625 -59.734375 22.125 -59.734375 C 18.625 -59.734375 16.273438 -58.765625 15.078125 -56.828125 C 13.878906 -54.890625 13.28125 -51.894531 13.28125 -47.84375 L 13.28125 -18.765625 C 13.28125 -14.671875 13.878906 -11.613281 15.078125 -9.59375 C 16.273438 -7.570312 18.625 -6.5625 22.125 -6.5625 Z M 22.125 -6.5625 "/></g></g></g><g fill="#5523eb" fill-opacity="1"><g transform="translate(38.623882, 98.990472)"><g><path d="M 20.8125 0.734375 C 15.238281 0.734375 10.988281 -0.984375 8.0625 -4.421875 C 5.144531 -7.867188 3.523438 -12.59375 3.203125 -18.59375 L 11.390625 -20.8125 C 11.660156 -16.550781 12.492188 -13.109375 13.890625 -10.484375 C 15.285156 -7.867188 17.59375 -6.5625 20.8125 -6.5625 C 23.21875 -6.5625 25.035156 -7.226562 26.265625 -8.5625 C 27.492188 -9.894531 28.109375 -11.820312 28.109375 -14.34375 C 28.109375 -17.070312 27.53125 -19.335938 26.375 -21.140625 C 25.226562 -22.941406 23.398438 -24.9375 20.890625 -27.125 L 9.75 -36.953125 C 7.507812 -38.921875 5.882812 -41.035156 4.875 -43.296875 C 3.863281 -45.566406 3.359375 -48.34375 3.359375 -51.625 C 3.359375 -56.476562 4.75 -60.242188 7.53125 -62.921875 C 10.320312 -65.597656 14.117188 -66.9375 18.921875 -66.9375 C 24.171875 -66.9375 28.132812 -65.539062 30.8125 -62.75 C 33.488281 -59.96875 35.097656 -55.65625 35.640625 -49.8125 L 27.78125 -47.6875 C 27.5 -51.5625 26.742188 -54.550781 25.515625 -56.65625 C 24.296875 -58.757812 22.097656 -59.8125 18.921875 -59.8125 C 16.578125 -59.8125 14.773438 -59.195312 13.515625 -57.96875 C 12.265625 -56.738281 11.640625 -54.921875 11.640625 -52.515625 C 11.640625 -50.554688 11.96875 -48.90625 12.625 -47.5625 C 13.28125 -46.226562 14.398438 -44.878906 15.984375 -43.515625 L 27.203125 -33.671875 C 30.097656 -31.109375 32.40625 -28.320312 34.125 -25.3125 C 35.84375 -22.3125 36.703125 -18.898438 36.703125 -15.078125 C 36.703125 -10.210938 35.226562 -6.359375 32.28125 -3.515625 C 29.332031 -0.679688 25.507812 0.734375 20.8125 0.734375 Z M 20.8125 0.734375 "/></g></g></g></g></g></svg>