<svg xmlns="http://www.w3.org/2000/svg" xmlns:xlink="http://www.w3.org/1999/xlink" width="500" zoomAndPan="magnify" viewBox="0 0 375 374.999991" height="500" preserveAspectRatio="xMidYMid meet" version="1.0"><defs><g/><clipPath id="1e8d6a2d2d"><path d="M 299.253906 87.585938 L 324.726562 87.585938 L 324.726562 111.515625 L 299.253906 111.515625 Z M 299.253906 87.585938 " clip-rule="nonzero"/></clipPath><clipPath id="9bae263b13"><rect x="0" width="325" y="0" height="153"/></clipPath></defs><g transform="matrix(1, 0, 0, 1, 23, 110)"><g clip-path="url(#9bae263b13)"><g fill="#282828" fill-opacity="1"><g transform="translate(0.776521, 110.547149)"><g><path d="M 58.65625 -13.671875 L 58.65625 0 L 3.984375 0 L 3.984375 -10.703125 L 35.1875 -47.609375 L 4.78125 -47.609375 L 4.78125 -61.265625 L 57.625 -61.265625 L 57.625 -50.5625 L 26.421875 -13.671875 Z M 58.65625 -13.671875 "/></g></g></g><g fill="#282828" fill-opacity="1"><g transform="translate(53.732893, 110.547149)"><g><path d="M 32.921875 -62.1875 C 42.410156 -62.1875 49.695312 -59.925781 54.78125 -55.40625 C 59.863281 -50.882812 62.40625 -44.070312 62.40625 -34.96875 L 62.40625 0 L 45.78125 0 L 45.78125 -7.625 C 42.4375 -1.9375 36.210938 0.90625 27.109375 0.90625 C 22.398438 0.90625 18.316406 0.109375 14.859375 -1.484375 C 11.410156 -3.078125 8.773438 -5.273438 6.953125 -8.078125 C 5.128906 -10.890625 4.21875 -14.082031 4.21875 -17.65625 C 4.21875 -23.34375 6.359375 -27.816406 10.640625 -31.078125 C 14.929688 -34.347656 21.554688 -35.984375 30.515625 -35.984375 L 44.640625 -35.984375 C 44.640625 -39.859375 43.460938 -42.835938 41.109375 -44.921875 C 38.753906 -47.015625 35.222656 -48.0625 30.515625 -48.0625 C 27.253906 -48.0625 24.046875 -47.546875 20.890625 -46.515625 C 17.742188 -45.492188 15.070312 -44.113281 12.875 -42.375 L 6.484375 -54.78125 C 9.828125 -57.132812 13.832031 -58.957031 18.5 -60.25 C 23.175781 -61.539062 27.984375 -62.1875 32.921875 -62.1875 Z M 31.546875 -11.046875 C 34.585938 -11.046875 37.285156 -11.75 39.640625 -13.15625 C 41.992188 -14.5625 43.660156 -16.628906 44.640625 -19.359375 L 44.640625 -25.625 L 32.453125 -25.625 C 25.171875 -25.625 21.53125 -23.234375 21.53125 -18.453125 C 21.53125 -16.171875 22.421875 -14.363281 24.203125 -13.03125 C 25.984375 -11.707031 28.429688 -11.046875 31.546875 -11.046875 Z M 31.546875 -11.046875 "/></g></g></g><g fill="#282828" fill-opacity="1"><g transform="translate(115.116808, 110.547149)"><g><path d="M 47.71875 -2.96875 C 45.96875 -1.675781 43.820312 -0.707031 41.28125 -0.0625 C 38.738281 0.582031 36.0625 0.90625 33.25 0.90625 C 25.96875 0.90625 20.332031 -0.953125 16.34375 -4.671875 C 12.351562 -8.390625 10.359375 -13.851562 10.359375 -21.0625 L 10.359375 -46.234375 L 0.90625 -46.234375 L 0.90625 -59.90625 L 10.359375 -59.90625 L 10.359375 -74.828125 L 28.125 -74.828125 L 28.125 -59.90625 L 43.390625 -59.90625 L 43.390625 -46.234375 L 28.125 -46.234375 L 28.125 -21.296875 C 28.125 -18.710938 28.785156 -16.71875 30.109375 -15.3125 C 31.441406 -13.914062 33.328125 -13.21875 35.765625 -13.21875 C 38.566406 -13.21875 40.957031 -13.972656 42.9375 -15.484375 Z M 47.71875 -2.96875 "/></g></g></g><g fill="#282828" fill-opacity="1"><g transform="translate(155.773542, 110.547149)"><g><path d="M 47.71875 -2.96875 C 45.96875 -1.675781 43.820312 -0.707031 41.28125 -0.0625 C 38.738281 0.582031 36.0625 0.90625 33.25 0.90625 C 25.96875 0.90625 20.332031 -0.953125 16.34375 -4.671875 C 12.351562 -8.390625 10.359375 -13.851562 10.359375 -21.0625 L 10.359375 -46.234375 L 0.90625 -46.234375 L 0.90625 -59.90625 L 10.359375 -59.90625 L 10.359375 -74.828125 L 28.125 -74.828125 L 28.125 -59.90625 L 43.390625 -59.90625 L 43.390625 -46.234375 L 28.125 -46.234375 L 28.125 -21.296875 C 28.125 -18.710938 28.785156 -16.71875 30.109375 -15.3125 C 31.441406 -13.914062 33.328125 -13.21875 35.765625 -13.21875 C 38.566406 -13.21875 40.957031 -13.972656 42.9375 -15.484375 Z M 47.71875 -2.96875 "/></g></g></g><g fill="#282828" fill-opacity="1"><g transform="translate(196.430275, 110.547149)"><g><path d="M 32.921875 -62.1875 C 42.410156 -62.1875 49.695312 -59.925781 54.78125 -55.40625 C 59.863281 -50.882812 62.40625 -44.070312 62.40625 -34.96875 L 62.40625 0 L 45.78125 0 L 45.78125 -7.625 C 42.4375 -1.9375 36.210938 0.90625 27.109375 0.90625 C 22.398438 0.90625 18.316406 0.109375 14.859375 -1.484375 C 11.410156 -3.078125 8.773438 -5.273438 6.953125 -8.078125 C 5.128906 -10.890625 4.21875 -14.082031 4.21875 -17.65625 C 4.21875 -23.34375 6.359375 -27.816406 10.640625 -31.078125 C 14.929688 -34.347656 21.554688 -35.984375 30.515625 -35.984375 L 44.640625 -35.984375 C 44.640625 -39.859375 43.460938 -42.835938 41.109375 -44.921875 C 38.753906 -47.015625 35.222656 -48.0625 30.515625 -48.0625 C 27.253906 -48.0625 24.046875 -47.546875 20.890625 -46.515625 C 17.742188 -45.492188 15.070312 -44.113281 12.875 -42.375 L 6.484375 -54.78125 C 9.828125 -57.132812 13.832031 -58.957031 18.5 -60.25 C 23.175781 -61.539062 27.984375 -62.1875 32.921875 -62.1875 Z M 31.546875 -11.046875 C 34.585938 -11.046875 37.285156 -11.75 39.640625 -13.15625 C 41.992188 -14.5625 43.660156 -16.628906 44.640625 -19.359375 L 44.640625 -25.625 L 32.453125 -25.625 C 25.171875 -25.625 21.53125 -23.234375 21.53125 -18.453125 C 21.53125 -16.171875 22.421875 -14.363281 24.203125 -13.03125 C 25.984375 -11.707031 28.429688 -11.046875 31.546875 -11.046875 Z M 31.546875 -11.046875 "/></g></g></g><g fill="#282828" fill-opacity="1"><g transform="translate(257.814202, 110.547149)"><g><path d="M 25.171875 -53.1875 C 27.296875 -56.144531 30.160156 -58.382812 33.765625 -59.90625 C 37.367188 -61.425781 41.523438 -62.1875 46.234375 -62.1875 L 46.234375 -45.78125 C 44.265625 -45.9375 42.9375 -46.015625 42.25 -46.015625 C 37.164062 -46.015625 33.179688 -44.585938 30.296875 -41.734375 C 27.410156 -38.890625 25.96875 -34.617188 25.96875 -28.921875 L 25.96875 0 L 8.203125 0 L 8.203125 -61.265625 L 25.171875 -61.265625 Z M 25.171875 -53.1875 "/></g></g></g><g clip-path="url(#1e8d6a2d2d)"><path fill="#5523eb" d="M 324.261719 94.609375 C 323.824219 93.292969 323.210938 92.148438 322.417969 91.316406 C 322.023438 90.878906 321.542969 90.4375 321.015625 90.089844 C 320.578125 89.78125 320.050781 89.515625 319.566406 89.296875 C 319.214844 89.167969 318.863281 89.035156 318.558594 88.902344 C 318.339844 88.816406 318.117188 88.726562 317.898438 88.640625 L 317.636719 88.507812 C 317.242188 88.332031 316.800781 88.15625 316.363281 88.027344 C 315.707031 87.894531 315.046875 87.804688 314.433594 87.71875 C 313.863281 87.628906 313.292969 87.628906 312.632812 87.585938 C 312.503906 87.585938 312.328125 87.585938 312.195312 87.585938 C 311.230469 87.585938 310.222656 87.675781 309.035156 87.851562 C 308.027344 87.980469 306.972656 88.246094 305.964844 88.640625 C 305.4375 88.816406 304.910156 89.035156 304.472656 89.296875 C 303.988281 89.5625 303.507812 89.957031 303.070312 90.4375 C 302.628906 90.964844 302.234375 91.359375 301.925781 91.800781 C 301.796875 92.019531 301.621094 92.238281 301.488281 92.457031 C 301.402344 92.589844 301.3125 92.722656 301.226562 92.851562 C 301.007812 93.203125 300.785156 93.511719 300.65625 93.863281 C 300.480469 94.210938 300.304688 94.652344 300.171875 95.132812 C 300.085938 95.484375 299.996094 95.835938 299.953125 96.1875 C 299.910156 96.273438 299.910156 96.40625 299.863281 96.496094 C 299.734375 97.066406 299.644531 97.636719 299.558594 98.425781 C 299.425781 99.523438 299.382812 100.664062 299.46875 101.933594 C 299.515625 102.507812 299.558594 103.207031 299.734375 103.867188 C 299.910156 104.480469 300.128906 105.09375 300.4375 105.664062 C 300.699219 106.148438 301.050781 106.675781 301.53125 107.246094 C 301.796875 107.597656 302.148438 107.902344 302.453125 108.210938 L 302.71875 108.472656 C 303.550781 109.308594 304.558594 110.007812 305.789062 110.625 C 306.359375 110.886719 306.972656 111.105469 307.71875 111.324219 C 308.421875 111.5 309.167969 111.632812 309.738281 111.71875 C 310.265625 111.808594 310.835938 111.808594 311.582031 111.851562 C 311.757812 111.851562 311.886719 111.851562 312.0625 111.851562 C 312.195312 111.851562 312.328125 111.851562 312.457031 111.851562 C 312.898438 111.851562 313.292969 111.765625 313.597656 111.71875 C 314.167969 111.632812 314.742188 111.5 315.355469 111.28125 C 315.96875 111.105469 316.582031 110.800781 317.152344 110.535156 C 317.417969 110.402344 317.722656 110.273438 318.03125 110.097656 C 318.25 109.964844 318.46875 109.832031 318.644531 109.703125 L 318.777344 109.613281 C 319.261719 109.261719 319.742188 108.867188 320.355469 108.296875 C 320.882812 107.816406 321.277344 107.375 321.628906 106.980469 C 322.113281 106.453125 322.464844 105.796875 322.8125 105.226562 C 323.164062 104.613281 323.429688 103.953125 323.691406 103.339844 C 323.910156 102.8125 324.128906 102.242188 324.261719 101.714844 C 324.4375 101.101562 324.527344 100.445312 324.613281 99.828125 C 324.65625 99.300781 324.699219 98.730469 324.746094 98.074219 C 324.746094 97.371094 324.65625 96.667969 324.570312 96.097656 C 324.570312 95.660156 324.4375 95.179688 324.261719 94.609375 Z M 324.261719 94.609375 " fill-opacity="1" fill-rule="nonzero"/></g><g fill="#282828" fill-opacity="1"><g transform="translate(130.620414, 145.006031)"><g><path d="M 13.859375 -4.6875 L 4.078125 -4.6875 L 1.984375 0 L 0.046875 0 L 8.0625 -17.546875 L 9.90625 -17.546875 L 17.921875 0 L 15.96875 0 Z M 13.1875 -6.1875 L 8.96875 -15.609375 L 4.765625 -6.1875 Z M 13.1875 -6.1875 "/></g></g></g><g fill="#282828" fill-opacity="1"><g transform="translate(151.096908, 145.006031)"><g><path d="M 2.859375 -17.546875 L 10 -17.546875 C 11.851562 -17.546875 13.488281 -17.171875 14.90625 -16.421875 C 16.332031 -15.679688 17.4375 -14.644531 18.21875 -13.3125 C 19 -11.988281 19.390625 -10.472656 19.390625 -8.765625 C 19.390625 -7.066406 19 -5.550781 18.21875 -4.21875 C 17.4375 -2.894531 16.332031 -1.859375 14.90625 -1.109375 C 13.488281 -0.367188 11.851562 0 10 0 L 2.859375 0 Z M 9.90625 -1.609375 C 11.4375 -1.609375 12.78125 -1.910156 13.9375 -2.515625 C 15.09375 -3.128906 15.984375 -3.972656 16.609375 -5.046875 C 17.242188 -6.128906 17.5625 -7.367188 17.5625 -8.765625 C 17.5625 -10.171875 17.242188 -11.410156 16.609375 -12.484375 C 15.984375 -13.566406 15.09375 -14.410156 13.9375 -15.015625 C 12.78125 -15.628906 11.4375 -15.9375 9.90625 -15.9375 L 4.71875 -15.9375 L 4.71875 -1.609375 Z M 9.90625 -1.609375 "/></g></g></g><g fill="#282828" fill-opacity="1"><g transform="translate(173.778628, 145.006031)"><g><path d="M 17.4375 -17.546875 L 9.671875 0 L 7.84375 0 L 0.078125 -17.546875 L 2.078125 -17.546875 L 8.796875 -2.3125 L 15.5625 -17.546875 Z M 17.4375 -17.546875 "/></g></g></g><g fill="#282828" fill-opacity="1"><g transform="translate(193.25249, 145.006031)"><g><path d="M 10.53125 0.15625 C 8.789062 0.15625 7.210938 -0.234375 5.796875 -1.015625 C 4.390625 -1.796875 3.285156 -2.859375 2.484375 -4.203125 C 1.691406 -5.554688 1.296875 -7.078125 1.296875 -8.765625 C 1.296875 -10.453125 1.691406 -11.972656 2.484375 -13.328125 C 3.285156 -14.679688 4.390625 -15.742188 5.796875 -16.515625 C 7.210938 -17.296875 8.789062 -17.6875 10.53125 -17.6875 C 12.257812 -17.6875 13.820312 -17.300781 15.21875 -16.53125 C 16.613281 -15.769531 17.710938 -14.707031 18.515625 -13.34375 C 19.316406 -11.976562 19.71875 -10.453125 19.71875 -8.765625 C 19.71875 -7.078125 19.316406 -5.550781 18.515625 -4.1875 C 17.710938 -2.832031 16.613281 -1.769531 15.21875 -1 C 13.820312 -0.226562 12.257812 0.15625 10.53125 0.15625 Z M 10.53125 -1.5 C 11.914062 -1.5 13.164062 -1.8125 14.28125 -2.4375 C 15.40625 -3.070312 16.285156 -3.941406 16.921875 -5.046875 C 17.554688 -6.160156 17.875 -7.398438 17.875 -8.765625 C 17.875 -10.140625 17.554688 -11.378906 16.921875 -12.484375 C 16.285156 -13.597656 15.40625 -14.46875 14.28125 -15.09375 C 13.164062 -15.726562 11.914062 -16.046875 10.53125 -16.046875 C 9.144531 -16.046875 7.882812 -15.726562 6.75 -15.09375 C 5.625 -14.46875 4.738281 -13.597656 4.09375 -12.484375 C 3.457031 -11.378906 3.140625 -10.140625 3.140625 -8.765625 C 3.140625 -7.398438 3.457031 -6.160156 4.09375 -5.046875 C 4.738281 -3.941406 5.625 -3.070312 6.75 -2.4375 C 7.882812 -1.8125 9.144531 -1.5 10.53125 -1.5 Z M 10.53125 -1.5 "/></g></g></g><g fill="#282828" fill-opacity="1"><g transform="translate(216.786478, 145.006031)"><g><path d="M 15.21875 -8.765625 L 17 -8.765625 L 17 -2.078125 C 16.175781 -1.359375 15.203125 -0.804688 14.078125 -0.421875 C 12.960938 -0.0351562 11.785156 0.15625 10.546875 0.15625 C 8.796875 0.15625 7.21875 -0.226562 5.8125 -1 C 4.40625 -1.769531 3.300781 -2.832031 2.5 -4.1875 C 1.695312 -5.550781 1.296875 -7.078125 1.296875 -8.765625 C 1.296875 -10.453125 1.695312 -11.976562 2.5 -13.34375 C 3.300781 -14.707031 4.40625 -15.769531 5.8125 -16.53125 C 7.21875 -17.300781 8.804688 -17.6875 10.578125 -17.6875 C 11.910156 -17.6875 13.132812 -17.472656 14.25 -17.046875 C 15.375 -16.628906 16.320312 -16 17.09375 -15.15625 L 15.9375 -13.984375 C 14.550781 -15.359375 12.789062 -16.046875 10.65625 -16.046875 C 9.226562 -16.046875 7.941406 -15.726562 6.796875 -15.09375 C 5.660156 -14.46875 4.765625 -13.597656 4.109375 -12.484375 C 3.460938 -11.378906 3.140625 -10.140625 3.140625 -8.765625 C 3.140625 -7.398438 3.460938 -6.164062 4.109375 -5.0625 C 4.765625 -3.957031 5.660156 -3.085938 6.796875 -2.453125 C 7.929688 -1.816406 9.207031 -1.5 10.625 -1.5 C 12.425781 -1.5 13.957031 -1.953125 15.21875 -2.859375 Z M 15.21875 -8.765625 "/></g></g></g><g fill="#282828" fill-opacity="1"><g transform="translate(238.666411, 145.006031)"><g><path d="M 13.859375 -4.6875 L 4.078125 -4.6875 L 1.984375 0 L 0.046875 0 L 8.0625 -17.546875 L 9.90625 -17.546875 L 17.921875 0 L 15.96875 0 Z M 13.1875 -6.1875 L 8.96875 -15.609375 L 4.765625 -6.1875 Z M 13.1875 -6.1875 "/></g></g></g><g fill="#282828" fill-opacity="1"><g transform="translate(259.142905, 145.006031)"><g><path d="M 2.859375 -17.546875 L 10 -17.546875 C 11.851562 -17.546875 13.488281 -17.171875 14.90625 -16.421875 C 16.332031 -15.679688 17.4375 -14.644531 18.21875 -13.3125 C 19 -11.988281 19.390625 -10.472656 19.390625 -8.765625 C 19.390625 -7.066406 19 -5.550781 18.21875 -4.21875 C 17.4375 -2.894531 16.332031 -1.859375 14.90625 -1.109375 C 13.488281 -0.367188 11.851562 0 10 0 L 2.859375 0 Z M 9.90625 -1.609375 C 11.4375 -1.609375 12.78125 -1.910156 13.9375 -2.515625 C 15.09375 -3.128906 15.984375 -3.972656 16.609375 -5.046875 C 17.242188 -6.128906 17.5625 -7.367188 17.5625 -8.765625 C 17.5625 -10.171875 17.242188 -11.410156 16.609375 -12.484375 C 15.984375 -13.566406 15.09375 -14.410156 13.9375 -15.015625 C 12.78125 -15.628906 11.4375 -15.9375 9.90625 -15.9375 L 4.71875 -15.9375 L 4.71875 -1.609375 Z M 9.90625 -1.609375 "/></g></g></g><g fill="#282828" fill-opacity="1"><g transform="translate(282.3511, 145.006031)"><g><path d="M 10.53125 0.15625 C 8.789062 0.15625 7.210938 -0.234375 5.796875 -1.015625 C 4.390625 -1.796875 3.285156 -2.859375 2.484375 -4.203125 C 1.691406 -5.554688 1.296875 -7.078125 1.296875 -8.765625 C 1.296875 -10.453125 1.691406 -11.972656 2.484375 -13.328125 C 3.285156 -14.679688 4.390625 -15.742188 5.796875 -16.515625 C 7.210938 -17.296875 8.789062 -17.6875 10.53125 -17.6875 C 12.257812 -17.6875 13.820312 -17.300781 15.21875 -16.53125 C 16.613281 -15.769531 17.710938 -14.707031 18.515625 -13.34375 C 19.316406 -11.976562 19.71875 -10.453125 19.71875 -8.765625 C 19.71875 -7.078125 19.316406 -5.550781 18.515625 -4.1875 C 17.710938 -2.832031 16.613281 -1.769531 15.21875 -1 C 13.820312 -0.226562 12.257812 0.15625 10.53125 0.15625 Z M 10.53125 -1.5 C 11.914062 -1.5 13.164062 -1.8125 14.28125 -2.4375 C 15.40625 -3.070312 16.285156 -3.941406 16.921875 -5.046875 C 17.554688 -6.160156 17.875 -7.398438 17.875 -8.765625 C 17.875 -10.140625 17.554688 -11.378906 16.921875 -12.484375 C 16.285156 -13.597656 15.40625 -14.46875 14.28125 -15.09375 C 13.164062 -15.726562 11.914062 -16.046875 10.53125 -16.046875 C 9.144531 -16.046875 7.882812 -15.726562 6.75 -15.09375 C 5.625 -14.46875 4.738281 -13.597656 4.09375 -12.484375 C 3.457031 -11.378906 3.140625 -10.140625 3.140625 -8.765625 C 3.140625 -7.398438 3.457031 -6.160156 4.09375 -5.046875 C 4.738281 -3.941406 5.625 -3.070312 6.75 -2.4375 C 7.882812 -1.8125 9.144531 -1.5 10.53125 -1.5 Z M 10.53125 -1.5 "/></g></g></g><g fill="#282828" fill-opacity="1"><g transform="translate(305.885087, 145.006031)"><g><path d="M 7.6875 0.15625 C 6.382812 0.15625 5.132812 -0.0507812 3.9375 -0.46875 C 2.75 -0.894531 1.828125 -1.445312 1.171875 -2.125 L 1.90625 -3.5625 C 2.539062 -2.925781 3.382812 -2.410156 4.4375 -2.015625 C 5.488281 -1.617188 6.570312 -1.421875 7.6875 -1.421875 C 9.257812 -1.421875 10.4375 -1.707031 11.21875 -2.28125 C 12.007812 -2.863281 12.40625 -3.613281 12.40625 -4.53125 C 12.40625 -5.238281 12.191406 -5.800781 11.765625 -6.21875 C 11.335938 -6.632812 10.8125 -6.953125 10.1875 -7.171875 C 9.570312 -7.398438 8.71875 -7.648438 7.625 -7.921875 C 6.300781 -8.253906 5.242188 -8.570312 4.453125 -8.875 C 3.671875 -9.1875 3 -9.660156 2.4375 -10.296875 C 1.882812 -10.929688 1.609375 -11.789062 1.609375 -12.875 C 1.609375 -13.757812 1.835938 -14.566406 2.296875 -15.296875 C 2.765625 -16.023438 3.484375 -16.601562 4.453125 -17.03125 C 5.429688 -17.46875 6.632812 -17.6875 8.0625 -17.6875 C 9.070312 -17.6875 10.054688 -17.546875 11.015625 -17.265625 C 11.972656 -16.992188 12.804688 -16.617188 13.515625 -16.140625 L 12.875 -14.65625 C 12.144531 -15.144531 11.359375 -15.507812 10.515625 -15.75 C 9.679688 -15.988281 8.863281 -16.109375 8.0625 -16.109375 C 6.53125 -16.109375 5.375 -15.8125 4.59375 -15.21875 C 3.820312 -14.625 3.4375 -13.863281 3.4375 -12.9375 C 3.4375 -12.226562 3.648438 -11.660156 4.078125 -11.234375 C 4.503906 -10.804688 5.035156 -10.476562 5.671875 -10.25 C 6.316406 -10.03125 7.179688 -9.789062 8.265625 -9.53125 C 9.554688 -9.207031 10.597656 -8.890625 11.390625 -8.578125 C 12.179688 -8.273438 12.851562 -7.804688 13.40625 -7.171875 C 13.957031 -6.546875 14.234375 -5.703125 14.234375 -4.640625 C 14.234375 -3.753906 13.992188 -2.945312 13.515625 -2.21875 C 13.046875 -1.488281 12.316406 -0.910156 11.328125 -0.484375 C 10.335938 -0.0546875 9.125 0.15625 7.6875 0.15625 Z M 7.6875 0.15625 "/></g></g></g></g></g></svg>