<svg xmlns="http://www.w3.org/2000/svg" xmlns:xlink="http://www.w3.org/1999/xlink" width="500" zoomAndPan="magnify" viewBox="0 0 375 157.92" height="200" preserveAspectRatio="xMidYMid meet" version="1.0"><defs><g/><clipPath id="62bdde60f6"><path d="M 294 72.132812 L 318.992188 72.132812 L 318.992188 95.652344 L 294 95.652344 Z M 294 72.132812 " clip-rule="nonzero"/></clipPath><clipPath id="3ad5d3334b"><rect x="0" width="320" y="0" height="136"/></clipPath></defs><g transform="matrix(1, 0, 0, 1, 26, 0.000000000000004653)"><g clip-path="url(#3ad5d3334b)"><g fill="#ffffff" fill-opacity="1"><g transform="translate(0.570458, 94.701364)"><g><path d="M 57.640625 -13.4375 L 57.640625 0 L 3.921875 0 L 3.921875 -10.515625 L 34.59375 -46.796875 L 4.703125 -46.796875 L 4.703125 -60.21875 L 56.640625 -60.21875 L 56.640625 -49.703125 L 25.96875 -13.4375 Z M 57.640625 -13.4375 "/></g></g></g><g fill="#ffffff" fill-opacity="1"><g transform="translate(52.623131, 94.701364)"><g><path d="M 32.34375 -61.125 C 41.675781 -61.125 48.84375 -58.898438 53.84375 -54.453125 C 58.84375 -50.015625 61.34375 -43.316406 61.34375 -34.359375 L 61.34375 0 L 45 0 L 45 -7.5 C 41.71875 -1.90625 35.597656 0.890625 26.640625 0.890625 C 22.015625 0.890625 18.003906 0.109375 14.609375 -1.453125 C 11.210938 -3.023438 8.617188 -5.191406 6.828125 -7.953125 C 5.035156 -10.710938 4.140625 -13.84375 4.140625 -17.34375 C 4.140625 -22.945312 6.25 -27.351562 10.46875 -30.5625 C 14.6875 -33.769531 21.195312 -35.375 30 -35.375 L 43.875 -35.375 C 43.875 -39.175781 42.71875 -42.101562 40.40625 -44.15625 C 38.09375 -46.207031 34.625 -47.234375 30 -47.234375 C 26.789062 -47.234375 23.632812 -46.726562 20.53125 -45.71875 C 17.4375 -44.71875 14.8125 -43.359375 12.65625 -41.640625 L 6.375 -53.84375 C 9.664062 -56.15625 13.601562 -57.945312 18.1875 -59.21875 C 22.78125 -60.488281 27.5 -61.125 32.34375 -61.125 Z M 31 -10.859375 C 33.988281 -10.859375 36.640625 -11.546875 38.953125 -12.921875 C 41.265625 -14.304688 42.90625 -16.34375 43.875 -19.03125 L 43.875 -25.1875 L 31.90625 -25.1875 C 24.738281 -25.1875 21.15625 -22.835938 21.15625 -18.140625 C 21.15625 -15.898438 22.03125 -14.125 23.78125 -12.8125 C 25.539062 -11.507812 27.945312 -10.859375 31 -10.859375 Z M 31 -10.859375 "/></g></g></g><g fill="#ffffff" fill-opacity="1"><g transform="translate(112.959532, 94.701364)"><g><path d="M 46.90625 -2.90625 C 45.1875 -1.632812 43.078125 -0.679688 40.578125 -0.046875 C 38.078125 0.578125 35.445312 0.890625 32.6875 0.890625 C 25.519531 0.890625 19.976562 -0.9375 16.0625 -4.59375 C 12.144531 -8.25 10.1875 -13.617188 10.1875 -20.703125 L 10.1875 -45.453125 L 0.890625 -45.453125 L 0.890625 -58.875 L 10.1875 -58.875 L 10.1875 -73.546875 L 27.65625 -73.546875 L 27.65625 -58.875 L 42.640625 -58.875 L 42.640625 -45.453125 L 27.65625 -45.453125 L 27.65625 -20.9375 C 27.65625 -18.394531 28.304688 -16.429688 29.609375 -15.046875 C 30.910156 -13.671875 32.753906 -12.984375 35.140625 -12.984375 C 37.910156 -12.984375 40.265625 -13.726562 42.203125 -15.21875 Z M 46.90625 -2.90625 "/></g></g></g><g fill="#ffffff" fill-opacity="1"><g transform="translate(152.922459, 94.701364)"><g><path d="M 46.90625 -2.90625 C 45.1875 -1.632812 43.078125 -0.679688 40.578125 -0.046875 C 38.078125 0.578125 35.445312 0.890625 32.6875 0.890625 C 25.519531 0.890625 19.976562 -0.9375 16.0625 -4.59375 C 12.144531 -8.25 10.1875 -13.617188 10.1875 -20.703125 L 10.1875 -45.453125 L 0.890625 -45.453125 L 0.890625 -58.875 L 10.1875 -58.875 L 10.1875 -73.546875 L 27.65625 -73.546875 L 27.65625 -58.875 L 42.640625 -58.875 L 42.640625 -45.453125 L 27.65625 -45.453125 L 27.65625 -20.9375 C 27.65625 -18.394531 28.304688 -16.429688 29.609375 -15.046875 C 30.910156 -13.671875 32.753906 -12.984375 35.140625 -12.984375 C 37.910156 -12.984375 40.265625 -13.726562 42.203125 -15.21875 Z M 46.90625 -2.90625 "/></g></g></g><g fill="#ffffff" fill-opacity="1"><g transform="translate(192.885387, 94.701364)"><g><path d="M 32.34375 -61.125 C 41.675781 -61.125 48.84375 -58.898438 53.84375 -54.453125 C 58.84375 -50.015625 61.34375 -43.316406 61.34375 -34.359375 L 61.34375 0 L 45 0 L 45 -7.5 C 41.71875 -1.90625 35.597656 0.890625 26.640625 0.890625 C 22.015625 0.890625 18.003906 0.109375 14.609375 -1.453125 C 11.210938 -3.023438 8.617188 -5.191406 6.828125 -7.953125 C 5.035156 -10.710938 4.140625 -13.84375 4.140625 -17.34375 C 4.140625 -22.945312 6.25 -27.351562 10.46875 -30.5625 C 14.6875 -33.769531 21.195312 -35.375 30 -35.375 L 43.875 -35.375 C 43.875 -39.175781 42.71875 -42.101562 40.40625 -44.15625 C 38.09375 -46.207031 34.625 -47.234375 30 -47.234375 C 26.789062 -47.234375 23.632812 -46.726562 20.53125 -45.71875 C 17.4375 -44.71875 14.8125 -43.359375 12.65625 -41.640625 L 6.375 -53.84375 C 9.664062 -56.15625 13.601562 -57.945312 18.1875 -59.21875 C 22.78125 -60.488281 27.5 -61.125 32.34375 -61.125 Z M 31 -10.859375 C 33.988281 -10.859375 36.640625 -11.546875 38.953125 -12.921875 C 41.265625 -14.304688 42.90625 -16.34375 43.875 -19.03125 L 43.875 -25.1875 L 31.90625 -25.1875 C 24.738281 -25.1875 21.15625 -22.835938 21.15625 -18.140625 C 21.15625 -15.898438 22.03125 -14.125 23.78125 -12.8125 C 25.539062 -11.507812 27.945312 -10.859375 31 -10.859375 Z M 31 -10.859375 "/></g></g></g><g fill="#ffffff" fill-opacity="1"><g transform="translate(253.221799, 94.701364)"><g><path d="M 24.734375 -52.28125 C 26.828125 -55.1875 29.644531 -57.382812 33.1875 -58.875 C 36.726562 -60.375 40.816406 -61.125 45.453125 -61.125 L 45.453125 -45 C 43.503906 -45.144531 42.195312 -45.21875 41.53125 -45.21875 C 36.53125 -45.21875 32.609375 -43.816406 29.765625 -41.015625 C 26.929688 -38.222656 25.515625 -34.03125 25.515625 -28.4375 L 25.515625 0 L 8.0625 0 L 8.0625 -60.21875 L 24.734375 -60.21875 Z M 24.734375 -52.28125 "/></g></g></g><g clip-path="url(#62bdde60f6)"><path fill="#5523eb" d="M 318.535156 79.035156 C 318.105469 77.738281 317.5 76.617188 316.722656 75.800781 C 316.335938 75.367188 315.863281 74.9375 315.34375 74.589844 C 314.914062 74.289062 314.394531 74.03125 313.921875 73.816406 C 313.574219 73.6875 313.230469 73.554688 312.929688 73.425781 C 312.714844 73.339844 312.496094 73.253906 312.28125 73.167969 L 312.023438 73.039062 C 311.636719 72.867188 311.203125 72.695312 310.773438 72.5625 C 310.125 72.433594 309.476562 72.347656 308.875 72.261719 C 308.3125 72.175781 307.753906 72.175781 307.105469 72.132812 C 306.976562 72.132812 306.804688 72.132812 306.675781 72.132812 C 305.726562 72.132812 304.734375 72.21875 303.570312 72.390625 C 302.578125 72.519531 301.542969 72.78125 300.550781 73.167969 C 300.03125 73.339844 299.515625 73.554688 299.082031 73.816406 C 298.609375 74.074219 298.136719 74.460938 297.703125 74.9375 C 297.273438 75.453125 296.882812 75.84375 296.582031 76.273438 C 296.453125 76.488281 296.28125 76.703125 296.152344 76.921875 C 296.066406 77.050781 295.976562 77.179688 295.890625 77.308594 C 295.675781 77.652344 295.460938 77.957031 295.332031 78.300781 C 295.160156 78.644531 294.988281 79.078125 294.855469 79.550781 C 294.769531 79.894531 294.683594 80.242188 294.640625 80.585938 C 294.597656 80.671875 294.597656 80.800781 294.554688 80.886719 C 294.425781 81.449219 294.339844 82.011719 294.253906 82.785156 C 294.125 83.863281 294.082031 84.984375 294.167969 86.238281 C 294.210938 86.796875 294.253906 87.488281 294.425781 88.132812 C 294.597656 88.738281 294.8125 89.34375 295.117188 89.902344 C 295.375 90.378906 295.71875 90.894531 296.195312 91.457031 C 296.453125 91.800781 296.796875 92.101562 297.101562 92.40625 L 297.359375 92.664062 C 298.179688 93.484375 299.171875 94.171875 300.378906 94.777344 C 300.9375 95.035156 301.542969 95.25 302.277344 95.464844 C 302.964844 95.640625 303.699219 95.769531 304.257812 95.855469 C 304.777344 95.941406 305.335938 95.941406 306.070312 95.984375 C 306.242188 95.984375 306.371094 95.984375 306.546875 95.984375 C 306.675781 95.984375 306.804688 95.984375 306.933594 95.984375 C 307.363281 95.984375 307.753906 95.898438 308.054688 95.855469 C 308.617188 95.769531 309.175781 95.640625 309.78125 95.421875 C 310.382812 95.25 310.988281 94.949219 311.546875 94.691406 C 311.808594 94.5625 312.109375 94.429688 312.410156 94.257812 C 312.625 94.128906 312.84375 94 313.015625 93.871094 L 313.144531 93.785156 C 313.617188 93.441406 314.09375 93.050781 314.695312 92.492188 C 315.214844 92.015625 315.601562 91.585938 315.949219 91.195312 C 316.421875 90.679688 316.765625 90.03125 317.113281 89.472656 C 317.457031 88.867188 317.714844 88.21875 317.976562 87.617188 C 318.191406 87.097656 318.40625 86.539062 318.535156 86.019531 C 318.707031 85.417969 318.792969 84.769531 318.882812 84.167969 C 318.925781 83.648438 318.96875 83.089844 319.011719 82.441406 C 319.011719 81.75 318.925781 81.0625 318.835938 80.5 C 318.835938 80.070312 318.707031 79.59375 318.535156 79.035156 Z M 318.535156 79.035156 " fill-opacity="1" fill-rule="nonzero"/></g><g fill="#ffffff" fill-opacity="1"><g transform="translate(128.198568, 128.572207)"><g><path d="M 13.625 -4.609375 L 4.015625 -4.609375 L 1.953125 0 L 0.046875 0 L 7.9375 -17.25 L 9.734375 -17.25 L 17.625 0 L 15.703125 0 Z M 12.953125 -6.09375 L 8.828125 -15.34375 L 4.6875 -6.09375 Z M 12.953125 -6.09375 "/></g></g></g><g fill="#ffffff" fill-opacity="1"><g transform="translate(148.325632, 128.572207)"><g><path d="M 2.8125 -17.25 L 9.828125 -17.25 C 11.648438 -17.25 13.257812 -16.882812 14.65625 -16.15625 C 16.050781 -15.425781 17.132812 -14.40625 17.90625 -13.09375 C 18.6875 -11.789062 19.078125 -10.300781 19.078125 -8.625 C 19.078125 -6.945312 18.6875 -5.453125 17.90625 -4.140625 C 17.132812 -2.835938 16.050781 -1.820312 14.65625 -1.09375 C 13.257812 -0.363281 11.648438 0 9.828125 0 L 2.8125 0 Z M 9.734375 -1.578125 C 11.242188 -1.578125 12.566406 -1.875 13.703125 -2.46875 C 14.835938 -3.070312 15.710938 -3.898438 16.328125 -4.953125 C 16.953125 -6.015625 17.265625 -7.238281 17.265625 -8.625 C 17.265625 -10 16.953125 -11.21875 16.328125 -12.28125 C 15.710938 -13.34375 14.835938 -14.171875 13.703125 -14.765625 C 12.566406 -15.367188 11.242188 -15.671875 9.734375 -15.671875 L 4.625 -15.671875 L 4.625 -1.578125 Z M 9.734375 -1.578125 "/></g></g></g><g fill="#ffffff" fill-opacity="1"><g transform="translate(170.620289, 128.572207)"><g><path d="M 17.15625 -17.25 L 9.515625 0 L 7.71875 0 L 0.078125 -17.25 L 2.046875 -17.25 L 8.65625 -2.265625 L 15.296875 -17.25 Z M 17.15625 -17.25 "/></g></g></g><g fill="#ffffff" fill-opacity="1"><g transform="translate(189.761831, 128.572207)"><g><path d="M 10.34375 0.140625 C 8.632812 0.140625 7.085938 -0.238281 5.703125 -1 C 4.316406 -1.757812 3.234375 -2.804688 2.453125 -4.140625 C 1.671875 -5.472656 1.28125 -6.96875 1.28125 -8.625 C 1.28125 -10.28125 1.671875 -11.773438 2.453125 -13.109375 C 3.234375 -14.441406 4.316406 -15.488281 5.703125 -16.25 C 7.085938 -17.007812 8.632812 -17.390625 10.34375 -17.390625 C 12.050781 -17.390625 13.59375 -17.007812 14.96875 -16.25 C 16.34375 -15.5 17.421875 -14.453125 18.203125 -13.109375 C 18.992188 -11.773438 19.390625 -10.28125 19.390625 -8.625 C 19.390625 -6.96875 18.992188 -5.46875 18.203125 -4.125 C 17.421875 -2.789062 16.34375 -1.742188 14.96875 -0.984375 C 13.59375 -0.234375 12.050781 0.140625 10.34375 0.140625 Z M 10.34375 -1.484375 C 11.707031 -1.484375 12.941406 -1.789062 14.046875 -2.40625 C 15.148438 -3.019531 16.007812 -3.875 16.625 -4.96875 C 17.25 -6.0625 17.5625 -7.28125 17.5625 -8.625 C 17.5625 -9.96875 17.25 -11.1875 16.625 -12.28125 C 16.007812 -13.375 15.148438 -14.226562 14.046875 -14.84375 C 12.941406 -15.457031 11.707031 -15.765625 10.34375 -15.765625 C 8.976562 -15.765625 7.742188 -15.457031 6.640625 -14.84375 C 5.535156 -14.226562 4.664062 -13.375 4.03125 -12.28125 C 3.394531 -11.1875 3.078125 -9.96875 3.078125 -8.625 C 3.078125 -7.28125 3.394531 -6.0625 4.03125 -4.96875 C 4.664062 -3.875 5.535156 -3.019531 6.640625 -2.40625 C 7.742188 -1.789062 8.976562 -1.484375 10.34375 -1.484375 Z M 10.34375 -1.484375 "/></g></g></g><g fill="#ffffff" fill-opacity="1"><g transform="translate(212.894211, 128.572207)"><g><path d="M 14.953125 -8.625 L 16.703125 -8.625 L 16.703125 -2.046875 C 15.898438 -1.335938 14.945312 -0.796875 13.84375 -0.421875 C 12.75 -0.046875 11.59375 0.140625 10.375 0.140625 C 8.644531 0.140625 7.085938 -0.234375 5.703125 -0.984375 C 4.328125 -1.742188 3.242188 -2.789062 2.453125 -4.125 C 1.671875 -5.46875 1.28125 -6.96875 1.28125 -8.625 C 1.28125 -10.28125 1.671875 -11.773438 2.453125 -13.109375 C 3.242188 -14.453125 4.328125 -15.5 5.703125 -16.25 C 7.085938 -17.007812 8.648438 -17.390625 10.390625 -17.390625 C 11.710938 -17.390625 12.921875 -17.179688 14.015625 -16.765625 C 15.117188 -16.347656 16.050781 -15.726562 16.8125 -14.90625 L 15.671875 -13.75 C 14.304688 -15.09375 12.570312 -15.765625 10.46875 -15.765625 C 9.070312 -15.765625 7.8125 -15.457031 6.6875 -14.84375 C 5.5625 -14.226562 4.675781 -13.375 4.03125 -12.28125 C 3.394531 -11.1875 3.078125 -9.96875 3.078125 -8.625 C 3.078125 -7.28125 3.394531 -6.0625 4.03125 -4.96875 C 4.675781 -3.882812 5.554688 -3.03125 6.671875 -2.40625 C 7.796875 -1.789062 9.054688 -1.484375 10.453125 -1.484375 C 12.222656 -1.484375 13.722656 -1.925781 14.953125 -2.8125 Z M 14.953125 -8.625 "/></g></g></g><g fill="#ffffff" fill-opacity="1"><g transform="translate(234.400764, 128.572207)"><g><path d="M 13.625 -4.609375 L 4.015625 -4.609375 L 1.953125 0 L 0.046875 0 L 7.9375 -17.25 L 9.734375 -17.25 L 17.625 0 L 15.703125 0 Z M 12.953125 -6.09375 L 8.828125 -15.34375 L 4.6875 -6.09375 Z M 12.953125 -6.09375 "/></g></g></g><g fill="#ffffff" fill-opacity="1"><g transform="translate(254.527827, 128.572207)"><g><path d="M 2.8125 -17.25 L 9.828125 -17.25 C 11.648438 -17.25 13.257812 -16.882812 14.65625 -16.15625 C 16.050781 -15.425781 17.132812 -14.40625 17.90625 -13.09375 C 18.6875 -11.789062 19.078125 -10.300781 19.078125 -8.625 C 19.078125 -6.945312 18.6875 -5.453125 17.90625 -4.140625 C 17.132812 -2.835938 16.050781 -1.820312 14.65625 -1.09375 C 13.257812 -0.363281 11.648438 0 9.828125 0 L 2.8125 0 Z M 9.734375 -1.578125 C 11.242188 -1.578125 12.566406 -1.875 13.703125 -2.46875 C 14.835938 -3.070312 15.710938 -3.898438 16.328125 -4.953125 C 16.953125 -6.015625 17.265625 -7.238281 17.265625 -8.625 C 17.265625 -10 16.953125 -11.21875 16.328125 -12.28125 C 15.710938 -13.34375 14.835938 -14.171875 13.703125 -14.765625 C 12.566406 -15.367188 11.242188 -15.671875 9.734375 -15.671875 L 4.625 -15.671875 L 4.625 -1.578125 Z M 9.734375 -1.578125 "/></g></g></g><g fill="#ffffff" fill-opacity="1"><g transform="translate(277.339975, 128.572207)"><g><path d="M 10.34375 0.140625 C 8.632812 0.140625 7.085938 -0.238281 5.703125 -1 C 4.316406 -1.757812 3.234375 -2.804688 2.453125 -4.140625 C 1.671875 -5.472656 1.28125 -6.96875 1.28125 -8.625 C 1.28125 -10.28125 1.671875 -11.773438 2.453125 -13.109375 C 3.234375 -14.441406 4.316406 -15.488281 5.703125 -16.25 C 7.085938 -17.007812 8.632812 -17.390625 10.34375 -17.390625 C 12.050781 -17.390625 13.59375 -17.007812 14.96875 -16.25 C 16.34375 -15.5 17.421875 -14.453125 18.203125 -13.109375 C 18.992188 -11.773438 19.390625 -10.28125 19.390625 -8.625 C 19.390625 -6.96875 18.992188 -5.46875 18.203125 -4.125 C 17.421875 -2.789062 16.34375 -1.742188 14.96875 -0.984375 C 13.59375 -0.234375 12.050781 0.140625 10.34375 0.140625 Z M 10.34375 -1.484375 C 11.707031 -1.484375 12.941406 -1.789062 14.046875 -2.40625 C 15.148438 -3.019531 16.007812 -3.875 16.625 -4.96875 C 17.25 -6.0625 17.5625 -7.28125 17.5625 -8.625 C 17.5625 -9.96875 17.25 -11.1875 16.625 -12.28125 C 16.007812 -13.375 15.148438 -14.226562 14.046875 -14.84375 C 12.941406 -15.457031 11.707031 -15.765625 10.34375 -15.765625 C 8.976562 -15.765625 7.742188 -15.457031 6.640625 -14.84375 C 5.535156 -14.226562 4.664062 -13.375 4.03125 -12.28125 C 3.394531 -11.1875 3.078125 -9.96875 3.078125 -8.625 C 3.078125 -7.28125 3.394531 -6.0625 4.03125 -4.96875 C 4.664062 -3.875 5.535156 -3.019531 6.640625 -2.40625 C 7.742188 -1.789062 8.976562 -1.484375 10.34375 -1.484375 Z M 10.34375 -1.484375 "/></g></g></g><g fill="#ffffff" fill-opacity="1"><g transform="translate(300.472355, 128.572207)"><g><path d="M 7.5625 0.140625 C 6.28125 0.140625 5.050781 -0.0625 3.875 -0.46875 C 2.707031 -0.875 1.800781 -1.414062 1.15625 -2.09375 L 1.875 -3.5 C 2.5 -2.875 3.328125 -2.367188 4.359375 -1.984375 C 5.390625 -1.597656 6.457031 -1.40625 7.5625 -1.40625 C 9.101562 -1.40625 10.257812 -1.6875 11.03125 -2.25 C 11.8125 -2.820312 12.203125 -3.554688 12.203125 -4.453125 C 12.203125 -5.148438 11.988281 -5.703125 11.5625 -6.109375 C 11.144531 -6.523438 10.628906 -6.84375 10.015625 -7.0625 C 9.410156 -7.28125 8.566406 -7.519531 7.484375 -7.78125 C 6.191406 -8.113281 5.160156 -8.429688 4.390625 -8.734375 C 3.617188 -9.035156 2.957031 -9.5 2.40625 -10.125 C 1.851562 -10.75 1.578125 -11.597656 1.578125 -12.671875 C 1.578125 -13.535156 1.804688 -14.320312 2.265625 -15.03125 C 2.722656 -15.75 3.425781 -16.320312 4.375 -16.75 C 5.332031 -17.175781 6.519531 -17.390625 7.9375 -17.390625 C 8.914062 -17.390625 9.878906 -17.253906 10.828125 -16.984375 C 11.773438 -16.710938 12.59375 -16.34375 13.28125 -15.875 L 12.671875 -14.421875 C 11.941406 -14.890625 11.164062 -15.242188 10.34375 -15.484375 C 9.519531 -15.722656 8.71875 -15.84375 7.9375 -15.84375 C 6.425781 -15.84375 5.285156 -15.550781 4.515625 -14.96875 C 3.753906 -14.382812 3.375 -13.632812 3.375 -12.71875 C 3.375 -12.019531 3.582031 -11.460938 4 -11.046875 C 4.414062 -10.628906 4.941406 -10.304688 5.578125 -10.078125 C 6.210938 -9.859375 7.0625 -9.617188 8.125 -9.359375 C 9.394531 -9.046875 10.421875 -8.738281 11.203125 -8.4375 C 11.984375 -8.132812 12.644531 -7.675781 13.1875 -7.0625 C 13.726562 -6.445312 14 -5.613281 14 -4.5625 C 14 -3.6875 13.765625 -2.890625 13.296875 -2.171875 C 12.828125 -1.460938 12.109375 -0.898438 11.140625 -0.484375 C 10.171875 -0.0664062 8.976562 0.140625 7.5625 0.140625 Z M 7.5625 0.140625 "/></g></g></g></g></g></svg>